<svg id="Group_more_color_one_shape" data-name="Group more color one shape" xmlns="http://www.w3.org/2000/svg" width="1080" height="1080" viewBox="0 0 1080 1080">
  <defs>
    <style>
      .cls-1 {
        fill: #1d4f7a;
        fill-rule: evenodd;
      }
    </style>
  </defs>
  <path id="P_copy" data-name="P copy" class="cls-1" d="M999.051,570.308q-51.3,49.789-144.666,49.775c-67.995,0-108.838-.022-111.384-0.023V790.739q0,7.2-.586,13.588-0.8,17.511-7.669,29.436a43.271,43.271,0,0,1-6.536,9.417q-14.8,16-49.916,16c-0.079,0-.153,0-0.232,0s-0.155,0-.235,0q-3.987,0-7.764-.245-27.245-1.648-41.787-14.581c-0.12-.1-0.247-0.186-0.366-0.284q-18.5-15.1-18.488-44.442V619.945H548.566q-44.394,0-44.389-51.984,0-25.255,11.263-40.1,11.257-14.863,33.126-14.852h60.856V420.1q0-3.321.064-6.586-5.136-76.059-78.17-76.075-39.756,0-59.161,25.332t-19.412,80.439V781.851q0,36.456-14.79,52.441t-49.917,16q-35.141,0-51.766-16.444t-16.638-52V443.205q0-105.763-78.573-105.771t-78.573,87.994v374.2q0,59.559-64.707,59.552-31.437,0-49.917-15.11-18.5-15.1-18.488-44.442V432.539q0-104.868,46.682-158.657,46.667-53.767,138.2-53.774,67.467,0,111.851,26.665t59.161,76.44q14.776-49.769,59.161-76.44t113.7-26.665q78.981,0,123.575,36.492,55.789-36.474,165.292-36.492,95.2,0,149.288,48.886t54.072,157.323Q1050.35,520.541,999.051,570.308ZM922.327,357.433q-11.569-21.769-32.353-28.443-20.8-6.666-50.38-6.666-53.621,0-75.337,18.665t-21.723,64.885c0,1.535,0,3.32,0,5.31q0.463,10.393.472,21.355v79.8c4.161,0.041,24.156.2,85.5,0.2q39.734,0,62.858-6.666,23.1-6.666,32.816-25.332t9.706-54.219Q933.882,379.216,922.327,357.433Z"/>
</svg>
